<svg width="512" height="512" viewBox="0 0 18 18" xmlns="http://www.w3.org/2000/svg">
  <defs>
    <mask id="wukkie-cube-cut" maskUnits="userSpaceOnUse" x="0" y="0" width="18" height="18">
      <rect x="0" y="0" width="18" height="18" fill="black"/>
      <polygon points="4.2,5.2 13.0,5.2 14.0,4.2 5.2,4.2" fill="white"/>
      <rect x="4.2" y="5.2" width="8.8" height="8.8" fill="white"/>
      <line x1="3.9" y1="7.5" x2="13.3" y2="7.7" stroke="black" stroke-width="0.35"/>
      <line x1="3.9" y1="9.9" x2="13.3" y2="9.7" stroke="black" stroke-width="0.35"/>
      <line x1="3.9" y1="12.0" x2="13.3" y2="12.1" stroke="black" stroke-width="0.35"/>
      <line x1="6.6" y1="5.2" x2="6.8" y2="7.5" stroke="black" stroke-width="0.3"/>
      <line x1="9.4" y1="7.7" x2="9.2" y2="9.9" stroke="black" stroke-width="0.3"/>
      <line x1="11.0" y1="9.8" x2="11.2" y2="12.0" stroke="black" stroke-width="0.3"/>
      <line x1="7.8" y1="12.1" x2="7.6" y2="14.3" stroke="black" stroke-width="0.3"/>
      <line x1="4.0" y1="5.2" x2="13.3" y2="5.2" stroke="black" stroke-width="0.3"/>
    </mask>
  </defs>
  <!-- Recolored vs Wally: teal disc + white mailbox grid (Wally is white+black). -->
  <circle cx="9" cy="9" r="8.5" fill="#14b8a6" stroke="#0f766e" stroke-width="1"/>
  <rect x="0" y="0" width="18" height="18" fill="#ffffff" mask="url(#wukkie-cube-cut)"/>
  <circle cx="10.5" cy="3.3" r="0.5" fill="#ffffff"/>
</svg>
